<svg width="255" height="240" viewBox="0 0 255 240" fill="none" xmlns="http://www.w3.org/2000/svg">
<path d="M225 120C225 177.75 177.75 225 120 225C62.25 225 15 177.75 15 120C15 64.5 57.75 18.75 113.25 15V42.75C70.5 46.5 39 84 42.75 126.75C46.5 169.5 84 201 126.75 197.25C166.5 193.5 197.25 160.5 197.25 120H182.25C182.25 154.5 154.5 182.25 120 182.25C85.5 182.25 57.75 154.5 57.75 120C57.75 88.5 81 61.5 112.5 57.75V90.75C99 93.75 89.25 105.75 89.25 120C89.25 136.5 102.75 150 119.25 150C135.75 150 149.25 136.5 149.25 120C149.25 106.5 139.5 94.5 126.75 91.5V0.750012C124.5 1.16825e-05 122.25 1.23978e-05 120 1.23978e-05C54 1.23978e-05 1.52588e-05 54 1.52588e-05 120C1.52588e-05 186 54 240 120 240C186 240 240 186 240 120H225ZM135 120C135 128.25 128.25 135 120 135C111.75 135 105 128.25 105 120C105 111.75 111.75 105 120 105C128.25 105 135 111.75 135 120Z" fill="#FFC008"/>
<g clip-path="url(#clip0_710_1690)">
<path d="M161.335 79.1522L155.993 69.5394L190.729 54.4814C190.729 54.4813 190.729 54.4813 190.729 54.4813C192.077 53.8975 193.531 53.5964 195 53.5964C196.469 53.5964 197.923 53.8975 199.271 54.4813C199.271 54.4813 199.271 54.4813 199.271 54.4814L234.007 69.5319L228.665 79.1446L228.379 79.6601L228.934 79.8584C231.716 80.8512 233.102 82.9142 234.251 85.0127L234.687 85.8077L235.127 85.0154L243.715 69.5578L243.715 69.5566C244.001 69.0388 244.176 68.4669 244.228 67.8777C244.28 67.2884 244.209 66.6948 244.018 66.1347C243.828 65.5747 243.523 65.0605 243.122 64.6252C242.722 64.1899 242.235 63.843 241.692 63.6067L241.691 63.6063L233 59.8369V33.75C233 32.6229 232.552 31.5419 231.755 30.7448C230.958 29.9478 229.877 29.5 228.75 29.5H210.5V18.75C210.5 17.6229 210.052 16.5418 209.255 15.7448C208.458 14.9478 207.377 14.5 206.25 14.5H183.75C182.623 14.5 181.542 14.9478 180.745 15.7448C179.948 16.5418 179.5 17.6229 179.5 18.75V29.5H161.25C160.123 29.5 159.042 29.9478 158.245 30.7448C157.448 31.5419 157 32.6229 157 33.75V59.829L148.302 63.5911L148.301 63.5912C147.755 63.8278 147.265 64.1765 146.862 64.6148C146.459 65.053 146.153 65.5709 145.963 66.1351C145.773 66.6992 145.704 67.2969 145.759 67.8896C145.815 68.4817 145.995 69.0555 146.286 69.5739C146.286 69.5743 146.287 69.5748 146.287 69.5752L154.873 85.0229L155.313 85.815L155.749 85.0202C156.898 82.9223 158.292 80.8587 161.066 79.8658L161.621 79.6672L161.335 79.1522ZM187.346 46.6862L165.5 56.1486V38H224.5V56.1486L202.654 46.6862C200.238 45.6394 197.633 45.0993 195 45.0993C192.367 45.0993 189.762 45.6394 187.346 46.6862ZM188 29.5V23H202V29.5H188Z" fill="#FFC008" stroke="#FFC008"/>
</g>
<defs>
<clipPath id="clip0_710_1690">
<rect width="120" height="120" fill="white" transform="translate(135 1.23978e-05)"/>
</clipPath>
</defs>
</svg>
