<svg width="700" height="500" viewBox="0 0 700 500" fill="none" xmlns="http://www.w3.org/2000/svg">
<path d="M0 0H700V500H0V0Z" fill="#00ABC2"/>
<path d="M378.692 275.967C415.847 275.967 445.967 245.847 445.967 208.692C445.967 171.537 415.847 141.417 378.692 141.417C341.537 141.417 311.417 171.537 311.417 208.692C311.417 245.847 341.537 275.967 378.692 275.967Z" fill="#FFEC2D"/>
<path d="M378.692 132.242C382.692 132.192 384.192 129.692 384.192 126.692C384.192 122.692 378.692 103.642 378.692 103.642C378.692 103.642 373.192 122.692 373.192 126.692C373.192 129.692 374.692 132.242 378.692 132.242Z" fill="#FFEC2D"/>
<path d="M455.142 208.692C455.192 212.692 457.692 214.192 460.692 214.192C464.692 214.192 483.742 208.692 483.742 208.692C483.742 208.692 464.692 203.192 460.692 203.192C457.692 203.192 455.142 204.692 455.142 208.692Z" fill="#FFEC2D"/>
<path d="M378.692 285.142C374.692 285.192 373.192 287.692 373.192 290.692C373.192 294.692 378.692 313.742 378.692 313.742C378.692 313.742 384.192 294.692 384.192 290.692C384.192 287.692 382.692 285.142 378.692 285.142Z" fill="#FFEC2D"/>
<path d="M302.242 208.692C302.192 204.692 299.692 203.192 296.692 203.192C292.692 203.192 273.642 208.692 273.642 208.692C273.642 208.692 292.692 214.192 296.692 214.192C299.692 214.192 302.242 212.692 302.242 208.692Z" fill="#FFEC2D"/>
<path d="M407.948 138.061C411.663 139.546 414.005 137.81 415.153 135.038C416.684 131.343 418.893 111.638 418.893 111.638C418.893 111.638 406.521 127.133 404.991 130.829C403.842 133.601 404.252 136.53 407.948 138.061Z" fill="#FFEC2D"/>
<path d="M449.322 237.948C447.838 241.663 449.574 244.005 452.345 245.153C456.041 246.684 475.745 248.893 475.745 248.893C475.745 248.893 460.25 236.521 456.555 234.99C453.783 233.842 450.853 234.252 449.322 237.948Z" fill="#FFEC2D"/>
<path d="M349.436 279.322C345.721 277.838 343.378 279.573 342.23 282.345C340.7 286.041 338.491 305.745 338.491 305.745C338.491 305.745 350.862 290.25 352.393 286.555C353.541 283.783 353.131 280.853 349.436 279.322Z" fill="#FFEC2D"/>
<path d="M308.061 179.436C309.546 175.721 307.81 173.378 305.038 172.23C301.343 170.7 281.638 168.491 281.638 168.491C281.638 168.491 297.133 180.862 300.829 182.393C303.601 183.541 306.53 183.131 308.061 179.436Z" fill="#FFEC2D"/>
<path d="M432.75 154.633C435.614 157.427 438.442 156.719 440.564 154.598C443.392 151.77 452.973 134.41 452.973 134.41C452.973 134.41 435.614 143.991 432.785 146.82C430.664 148.941 429.922 151.805 432.75 154.633Z" fill="#FFEC2D"/>
<path d="M432.75 262.75C429.957 265.614 430.664 268.442 432.785 270.564C435.614 273.392 452.973 282.973 452.973 282.973C452.973 282.973 443.392 265.614 440.564 262.785C438.442 260.664 435.579 259.922 432.75 262.75Z" fill="#FFEC2D"/>
<path d="M324.633 262.75C321.77 259.957 318.941 260.664 316.82 262.785C313.992 265.614 304.41 282.973 304.41 282.973C304.41 282.973 321.77 273.392 324.598 270.564C326.719 268.442 327.462 265.578 324.633 262.75Z" fill="#FFEC2D"/>
<path d="M324.633 154.633C327.427 151.77 326.719 148.941 324.598 146.82C321.77 143.991 304.41 134.41 304.41 134.41C304.41 134.41 313.992 151.77 316.82 154.598C318.941 156.719 321.805 157.462 324.633 154.633Z" fill="#FFEC2D"/>
<path d="M449.322 179.436C450.899 183.112 453.783 183.541 456.555 182.393C460.25 180.862 475.745 168.491 475.745 168.491C475.745 168.491 456.041 170.7 452.345 172.23C449.574 173.378 447.792 175.74 449.322 179.436Z" fill="#FFEC2D"/>
<path d="M407.948 279.322C404.272 280.899 403.842 283.783 404.99 286.555C406.521 290.25 418.893 305.745 418.893 305.745C418.893 305.745 416.684 286.041 415.153 282.345C414.005 279.574 411.643 277.792 407.948 279.322Z" fill="#FFEC2D"/>
<path d="M308.061 237.948C306.484 234.272 303.601 233.842 300.829 234.99C297.133 236.521 281.638 248.893 281.638 248.893C281.638 248.893 301.343 246.684 305.038 245.153C307.81 244.005 309.592 241.643 308.061 237.948Z" fill="#FFEC2D"/>
<path d="M349.436 138.061C353.112 136.484 353.541 133.601 352.393 130.829C350.862 127.133 338.491 111.638 338.491 111.638C338.491 111.638 340.7 131.343 342.23 135.038C343.378 137.81 345.74 139.592 349.436 138.061Z" fill="#FFEC2D"/>
<path d="M393.606 133.711C397.539 134.442 399.498 132.283 400.083 129.34C400.864 125.417 399.186 105.66 399.186 105.66C399.186 105.66 390.075 123.271 389.295 127.194C388.71 130.137 389.683 132.93 393.606 133.711Z" fill="#FFEC2D"/>
<path d="M453.673 223.606C452.941 227.539 455.101 229.498 458.043 230.083C461.966 230.864 481.723 229.186 481.723 229.186C481.723 229.186 464.112 220.075 460.189 219.295C457.247 218.71 454.453 219.683 453.673 223.606Z" fill="#FFEC2D"/>
<path d="M363.777 283.673C359.844 282.941 357.885 285.101 357.3 288.043C356.52 291.966 358.197 311.723 358.197 311.723C358.197 311.723 367.308 294.112 368.089 290.189C368.674 287.247 367.7 284.453 363.777 283.673Z" fill="#FFEC2D"/>
<path d="M303.711 193.777C304.442 189.844 302.283 187.885 299.34 187.3C295.417 186.52 275.66 188.198 275.66 188.198C275.66 188.198 293.271 197.308 297.194 198.089C300.137 198.674 302.93 197.7 303.711 193.777Z" fill="#FFEC2D"/>
<path d="M421.165 145.126C424.519 147.307 427.155 146.061 428.822 143.567C431.044 140.241 437.054 121.346 437.054 121.346C437.054 121.346 421.898 134.13 419.675 137.456C418.009 139.95 417.839 142.904 421.165 145.126Z" fill="#FFEC2D"/>
<path d="M442.258 251.165C440.077 254.519 441.322 257.155 443.817 258.822C447.142 261.044 466.038 267.054 466.038 267.054C466.038 267.054 453.254 251.898 449.928 249.675C447.433 248.009 444.48 247.839 442.258 251.165Z" fill="#FFEC2D"/>
<path d="M336.218 272.258C332.865 270.077 330.229 271.322 328.562 273.817C326.34 277.142 320.329 296.038 320.329 296.038C320.329 296.038 335.486 283.254 337.708 279.928C339.375 277.433 339.544 274.48 336.218 272.258Z" fill="#FFEC2D"/>
<path d="M315.126 166.218C317.307 162.865 316.061 160.229 313.567 158.562C310.241 156.34 291.346 150.329 291.346 150.329C291.346 150.329 304.13 165.486 307.456 167.708C309.95 169.375 312.904 169.544 315.126 166.218Z" fill="#FFEC2D"/>
<path d="M442.258 166.218C444.521 169.517 447.433 169.375 449.928 167.708C453.254 165.486 466.038 150.329 466.038 150.329C466.038 150.329 447.142 156.34 443.817 158.562C441.322 160.229 440.035 162.893 442.258 166.218Z" fill="#FFEC2D"/>
<path d="M421.165 272.258C417.867 274.521 418.009 277.433 419.675 279.928C421.898 283.254 437.054 296.038 437.054 296.038C437.054 296.038 431.044 277.142 428.822 273.817C427.155 271.322 424.491 270.035 421.165 272.258Z" fill="#FFEC2D"/>
<path d="M315.126 251.165C312.862 247.867 309.95 248.009 307.456 249.675C304.13 251.898 291.346 267.054 291.346 267.054C291.346 267.054 310.241 261.044 313.567 258.822C316.061 257.155 317.348 254.491 315.126 251.165Z" fill="#FFEC2D"/>
<path d="M336.218 145.126C339.517 142.862 339.375 139.95 337.708 137.456C335.486 134.13 320.329 121.346 320.329 121.346C320.329 121.346 326.34 140.241 328.562 143.567C330.229 146.061 332.893 147.348 336.218 145.126Z" fill="#FFEC2D"/>
<path d="M453.673 193.777C454.502 197.691 457.247 198.674 460.189 198.089C464.112 197.308 481.723 188.198 481.723 188.198C481.723 188.198 461.966 186.52 458.043 187.3C455.101 187.885 452.892 189.854 453.673 193.777Z" fill="#FFEC2D"/>
<path d="M393.606 283.673C389.693 284.502 388.71 287.247 389.295 290.189C390.075 294.112 399.186 311.723 399.186 311.723C399.186 311.723 400.864 291.966 400.083 288.043C399.498 285.101 397.53 282.892 393.606 283.673Z" fill="#FFEC2D"/>
<path d="M303.711 223.606C302.881 219.693 300.137 218.71 297.194 219.295C293.271 220.075 275.66 229.186 275.66 229.186C275.66 229.186 295.417 230.864 299.34 230.083C302.283 229.498 304.491 227.53 303.711 223.606Z" fill="#FFEC2D"/>
<path d="M363.777 133.711C367.69 132.881 368.674 130.137 368.089 127.194C367.308 123.271 358.197 105.66 358.197 105.66C358.197 105.66 356.52 125.417 357.3 129.34C357.885 132.283 359.854 134.491 363.777 133.711Z" fill="#FFEC2D"/>
<path d="M366.689 354.425C364.889 354.525 363.139 354.758 361.422 355.308C359.072 355.625 356.822 356.442 354.489 356.825L353.556 356.975L351.989 357.125C352.089 357.558 352.156 357.992 352.156 358.425C352.156 358.875 352.106 359.308 351.989 359.675C351.889 360.025 351.572 360.458 351.322 360.725C350.989 361.092 350.639 361.408 350.222 361.608C349.822 361.808 349.372 361.892 348.922 361.925C348.472 361.942 348.006 361.925 347.572 361.758C347.122 361.608 346.706 361.325 346.322 360.992C345.856 361.108 345.372 361.192 344.922 361.242C344.456 361.292 344.022 361.292 343.606 361.242C343.139 361.108 342.656 360.958 342.206 360.775C341.753 360.587 341.317 360.359 340.906 360.092C339.206 361.092 337.306 362.042 336.272 363.792C335.689 364.592 335.572 365.508 335.439 366.458C335.356 367.625 335.656 368.858 336.156 369.942C336.339 370.258 336.489 368.792 337.056 368.592C338.006 367.808 339.189 367.242 340.389 366.925C341.406 366.408 341.272 366.958 340.856 367.758C340.756 368.175 340.189 369.758 340.956 368.958C344.339 367.458 348.089 367.158 351.739 366.875C357.039 366.325 362.356 366.208 367.672 366.142C372.672 366.208 377.672 366.275 382.672 366.458C385.056 366.525 387.456 367.058 389.806 366.658C390.372 366.508 391.256 366.475 391.589 366.142C390.522 365.525 389.272 365.508 388.089 365.358H378.556C375.906 365.092 373.139 365.058 370.639 364.058C369.972 363.792 369.356 363.158 368.722 363.842C367.772 364.175 366.756 364.408 365.756 364.475C364.006 364.608 362.256 364.242 360.639 363.592C361.806 361.975 363.206 360.558 364.489 359.058C363.456 358.892 362.456 358.675 361.422 358.425C363.239 357.175 364.922 355.758 366.689 354.425V354.425Z" fill="#FFEC2D"/>
<path d="M444.556 371.697C440.933 373.872 438.168 370.016 435.14 368.859C432.978 370.034 432.776 373.963 430.755 375.824C428.338 378.575 425.375 375.056 425.596 372.342C422.705 374.779 421.243 380.303 416.567 379.565C414.352 377.757 412.707 373.964 411.014 378.283C409.634 380.394 405.959 383.398 404.056 380.21C403.467 377.395 402.056 374.085 400.525 378.556C399.474 381.718 396.1 384.045 392.835 382.66C391.048 381.199 394.268 375.797 391.993 376.181C388.593 378.429 386.617 384.01 381.872 383.563C380.03 381.495 382.99 377.991 380.969 375.696C378.584 378.757 375.938 383.24 371.812 383.563C369.818 381.947 371.89 377.313 370.617 376.627C366.383 379.166 361.916 383.691 356.592 382.274C358.667 374.337 367.337 371.553 374.628 370.934C387.173 369.392 400.37 372.227 412.44 367.699C414.39 366.512 419.115 364.829 417.433 362.077C415.943 359.904 421.309 360.754 421.825 358.215C421.506 355 424.289 355.443 427.007 355.161C439.195 354.635 451.235 357.202 463.386 357.638C464.304 363.559 457.736 367.717 452.448 365.888C449.922 366.298 446.135 360.081 446.877 364.603C446.368 366.977 446.725 370.112 444.556 371.698M340.856 359.574C343.677 362.156 345.656 359.087 348.293 357.966C357.139 354.923 364.857 349.606 372.466 344.294C377.076 340.479 381.073 335.531 387.265 334.294C399.342 330.642 412.181 331.085 424.305 327.715C433.537 315.075 449.218 310.566 462.353 303.3C465.303 302.384 466.442 299.956 467.384 297.276C472.398 289.361 479.229 282.348 487.307 277.557C491.129 275.468 495.689 274.266 500.016 275.221C499.706 280.374 496.749 284.942 493.18 288.506C496.101 288.442 498.611 286.596 501.563 286.7C502.575 291.989 496.863 294.757 493.824 298.05C495.517 298.444 502.001 298.934 498.467 300.63C493.965 303.755 488.823 305.9 484.666 309.529C488.501 310.218 488.938 311.033 485.039 312.42C482.928 313.851 478.868 314.351 478.476 317.139C481.373 318.919 477.141 320.687 475.509 321.266C472.388 321.993 469.11 323.349 473.256 325.72C471.688 328.089 468.323 328.594 465.578 328.36C466.411 331.045 467.617 334.049 464.132 335.234C456.32 341.139 447.152 345.435 437.332 346.417C449.599 347.36 462.235 345.083 472.718 338.412C474.102 336.775 481.359 335.017 477.3 333.641C475.389 332.846 471.292 331.962 471.015 330.505C476.692 327.002 483.847 328.248 489.955 326.167C490.113 324.19 485.309 324.74 483.518 324.29C479.246 323.94 479.497 322.85 483.615 322.446C488.826 321.066 494.728 320.794 499.112 317.397C495.543 315.743 491.054 317.199 487.246 315.849C493.701 313.024 501.317 312.74 507.109 308.497C509.747 305.562 503.729 306.479 501.975 306.55C498.4 307.173 496.747 305.461 500.809 303.976C507.744 298.862 516.526 295.541 521.397 288.127C522.551 286.468 524.114 281.468 520.433 283.266C515.593 284.876 511.334 290.317 505.819 288.634C516.686 280.212 527.026 270.624 534.453 258.969C534.837 255.607 529.56 255.244 528.187 257.883C521.205 264.61 514.887 272.55 505.948 276.768C514.509 268.505 521.586 258.722 527.761 248.582C529.085 245.566 532.643 241.939 530.712 238.59C527.6 236.014 523.706 238.372 522.088 241.455C516.661 248.54 512.54 256.81 505.561 262.58C511.671 250.92 517.997 238.507 518.151 225.057C518.132 222.288 517.576 218.21 513.816 218.727C510.835 219.262 511.543 223.723 510.314 225.98C507.609 235.168 506.339 245.119 500.789 253.165C502.038 245.698 504.222 237.915 502.545 230.375C501.762 227.005 496.32 228.455 497.021 231.79C490.52 264.72 468.424 293.52 439.526 310.18C426.294 317.666 411.515 322.493 396.478 324.681C392.433 325.566 388.058 325.047 384.192 326.426C374.824 333.609 369.152 345.629 357.291 349.393C351.975 352.035 345.043 352.571 341.242 357.51C340.913 358.141 340.842 358.873 340.855 359.574" fill="#FFEC2D"/>
<path d="M376.356 326.167C374.606 329.344 373.576 332.996 371.326 335.84C364.555 329.68 354.74 329.883 346.152 329.473C339.064 329.095 331.355 328.441 325.871 323.385C320.101 318.659 315.392 312.523 308.945 308.689C303.06 307.089 297.128 305.087 292.397 301.053C282.287 292.812 276.497 280.585 266.618 272.087C264.735 270.233 262.514 268.796 260.404 267.223C258.399 267.712 259.306 272.039 256.853 269.833C255.518 268.883 252.179 268.791 251.878 270.118C254.898 274.098 257.922 278.642 258.34 283.733C256.28 283.944 252.618 283.298 251.597 284.065C254.332 288.165 257.839 291.801 261.823 294.696C259.912 295.003 256.146 294.836 255.414 295.606C259.368 298.829 263.609 302.123 268.787 302.951C269.847 304.348 267.237 307.046 269.432 308.239C270.705 308.759 274.904 309.629 272.012 311.077C270.027 312.414 270.763 315.532 273.302 315.462C274.907 316.282 278.51 316.482 278.792 317.902C277.37 319.349 272.943 321.066 276.711 322.422C280.23 324.374 284.244 325.641 288.263 325.78C286.246 327.477 283.761 328.44 281.685 330.037C290.96 335.475 301.242 339.052 311.402 342.496C315.447 343.848 319.539 345.108 323.732 345.901C311.548 345.198 299.771 341.591 288.674 336.654C282.923 334.131 277.132 331.694 271.238 329.521C273.822 328.176 276.812 327.848 279.492 326.684C273.928 325.569 267.85 325.204 262.959 322.145C263.709 320.807 266.55 320.744 268.122 320.063C271.077 319.355 272.911 318.496 268.743 318.239C264.541 317.099 259.721 317.611 256.017 315.075C256.256 313.555 260.132 314.085 261.71 313.429C263.698 313.087 265.908 312.801 267.497 311.464C261 308.77 252.502 310.679 247.413 304.941C246.239 302.755 251.057 304.516 252.429 304.152C255.916 304.152 259.663 305.26 262.983 303.854C253.516 299.698 243.375 295.807 236.155 288.119C235.354 286.883 232.952 283.506 234.89 283.089C240.509 283.832 244.577 289.965 250.588 289.011C251.386 287.934 247.096 286.17 246.025 284.632C237.261 277.111 228.755 268.95 222.612 259.099C222.19 255.809 227.361 255.316 228.722 257.857C235.425 264.312 241.479 271.845 249.827 276.252C252.789 277.689 248.126 274.552 247.505 273.415C239.792 264.458 232.449 254.998 227.058 244.449C226.093 242.548 224.494 239.106 227.381 238.094C230.267 236.648 233.131 238.618 234.595 241.097C240.266 248.25 244.439 256.751 251.503 262.71C245.485 251.03 239.059 238.736 238.903 225.296C239.045 222.691 239.212 218.75 242.745 218.857C245.712 218.407 245.243 222.205 246.215 224.016C249.138 233.889 250.413 244.576 256.276 253.294C254.981 245.969 253.075 238.426 254.341 230.98C254.633 228.535 257.386 227.795 259.182 229.273C260.635 232.828 260.937 237.218 262.261 241.019C269.791 266.779 286.698 289.435 308.731 304.639C326.877 317.084 348.412 324.514 370.391 325.809C372.376 325.982 374.369 326.042 376.357 326.164" fill="#FFEC2D"/>
<path d="M348.456 360.319C349.109 360.319 349.639 359.789 349.639 359.135C349.639 358.482 349.109 357.952 348.456 357.952C347.802 357.952 347.272 358.482 347.272 359.135C347.272 359.789 347.802 360.319 348.456 360.319Z" fill="#FFEC2D"/>
<path d="M348.356 359.428C348.622 359.428 348.838 359.212 348.838 358.945C348.838 358.679 348.622 358.463 348.356 358.463C348.089 358.463 347.873 358.679 347.873 358.945C347.873 359.212 348.089 359.428 348.356 359.428Z" fill="#FFEC2D" stroke="#FFEC2D" stroke-width="0.1905"/>
<path d="M60 36.461C60 36.461 55.195 32.423 53.563 34.4485C50.938 37.706 61.633 53.9325 61.633 59.6465C61.633 69.026 55.3745 71.5765 47.6465 72.916C42.461 73.815 34.017 72.54 34.017 72.54C35.607 70.4035 36.641 69.774 39.32 69.6035C36.3375 68.055 33.3005 64.6935 33.3005 59.4615C33.3005 51.3925 36.622 48.0665 36.622 38.97C36.622 33.9235 32.484 27.4995 32.484 27.4995C39.7985 28.2315 43.4235 35.004 41.361 40.4165C42.525 40.584 43.582 40.3215 44.49 39.4615C45.025 40.9615 44.18 42.703 43.0485 44.2035C43.96 44.6905 44.6295 44.3985 46.0815 44.0985C45.9435 45.6445 45.0175 47.2865 42.7515 48.8325C49.327 47.125 53.373 51.708 53.373 56.506C53.373 60.13 50.8335 62.7275 48.351 62.7275C47.549 62.7275 46.3705 62.397 45.706 61.9005C45.237 62.898 45.4785 64.233 45.961 65.2305C44.142 64.7495 42.987 63.669 43.809 61.42C42.4115 61.2915 41.3 60.8195 40.544 59.92C41.31 58.9385 42.4725 58.3735 43.809 58.4195C42.7915 56.3195 43.9255 55.1445 45.578 54.1915C45.578 54.1915 44.527 58.4195 47.2105 58.4195C48.417 58.4195 49.5165 58.0265 49.5165 56.248C49.5165 54.6995 48.163 52.5545 45.0335 52.691C41.9045 52.8275 39.3675 54.8485 39.3675 59.844C39.3675 64.452 43.0845 66.744 47.9825 66.892C52.399 67.0285 55.7325 64.636 55.7325 60.0795C55.7325 54.0155 46.9785 40.193 46.9785 34.7895C46.9785 30.7345 50.6245 28.4715 54.192 28.4715C58.818 28.4715 62.721 33.052 62.721 33.052L60.0035 36.4595L60 36.461Z" fill="#FFEC2D"/>
<path d="M61.01 146.07C61.01 156.205 51.911 161.414 44.761 161.414C35.128 161.414 29.999 155.655 29.999 148.115C29.999 143.841 30.782 141.16 32.7525 137.069C32.7525 137.069 48.6425 104.024 54.829 91.2425C55.6005 89.6485 55.8495 87.8335 55.8495 85.1735C55.8495 81.065 51.8645 77.707 47.686 77.604C43.877 77.509 39.727 81.155 39.727 85.31C39.727 90.3565 42.345 92.6065 45.033 92.6065C48.341 92.6065 49.659 91.2465 49.659 88.924C49.659 87.3055 48.8775 86.6055 47.754 86.6055C44.917 86.6055 45.7135 90.4245 45.7135 90.4245C44.3045 90.116 43.1465 88.676 43.8085 86.878C42.7386 86.6417 41.7729 86.068 41.0535 85.2415C41.814 84.504 42.6865 83.935 43.8085 83.7415C43.144 81.5475 44.032 80.476 45.9515 80.025C45.564 80.8685 45.551 81.645 45.6795 82.3775C48.701 81.518 53.3325 82.8855 53.3325 88.1055C53.3325 93.288 49.7355 97.652 42.992 96.5615C44.596 97.3285 45.412 98.898 45.577 100.653C44.352 100.176 42.992 100.108 42.992 100.108C43.7805 101.498 44.8755 102.697 44.8285 105.427C43.5785 104.858 42.417 103.806 40.815 104.472C43.33 109.421 40.24 116.228 32.3795 117.838C35.2565 114.466 36.665 110.825 36.665 107.2C36.665 95.4515 33.4 93.477 33.4 85.3095C33.4 81.892 35.1565 78.202 38.638 75.694V75.8305C36.337 75.214 34.863 74.081 34.0155 72.5415C39.273 71.0505 46.9155 71.078 51.0185 72.6925C55.7355 73.239 59.0285 76.8575 59.9985 78.6945C60.9685 80.5295 62.853 87.171 59.9985 93.1505C56.8735 99.6945 42.1425 130.931 37.5495 140.75C36.5755 142.832 35.9845 145.041 35.9845 147.433C35.9845 153.448 41.4945 155.548 44.6245 155.548C48.366 155.548 52.1755 152.698 52.1755 149.138C52.1755 146.882 50.9505 145.524 49.182 145.524C44.953 145.524 45.21 149.121 46.053 151.388C43.421 150.205 41.891 148.092 42.3115 145.865C40.8215 145.66 39.403 144.954 38.094 143.478C39.124 142.178 40.38 141.194 42.3115 141.159C41.468 137.703 43.7815 136.242 46.053 135.431C45.3345 137.968 44.863 140.887 49.182 140.887C52.332 140.887 54.811 141.432 56.257 143.478C56.342 140.75 56.597 129.975 56.597 129.975C56.779 125.926 51.178 126.042 47.618 127.248C48.9615 122.584 51.717 120.063 58.094 120.701C56.546 120.054 54.8965 118.597 54.8965 115.791C54.8975 111.995 57.9775 107.789 59.9995 106.545L61.0105 146.071L61.01 146.07Z" fill="#FFEC2D"/>
<path d="M61.01 176.47C61.01 166.335 51.911 161.126 44.761 161.126C35.128 161.126 29.999 166.886 29.999 174.425C29.999 178.699 30.782 181.381 32.7525 185.471C32.7525 185.471 48.6425 218.517 54.829 231.298C55.6005 232.892 55.8495 234.707 55.8495 237.367C55.8495 241.475 51.8645 244.833 47.686 244.936C43.877 245.031 39.727 241.385 39.727 237.23C39.727 232.184 42.345 229.934 45.033 229.934C48.341 229.934 49.659 231.294 49.659 233.616C49.659 235.235 48.8775 235.935 47.754 235.935C44.917 235.935 45.7135 232.116 45.7135 232.116C44.3045 232.424 43.1465 233.864 43.8085 235.662C42.7386 235.898 41.7729 236.472 41.0535 237.299C41.814 238.036 42.6865 238.605 43.8085 238.799C43.144 240.993 44.032 242.064 45.9515 242.515C45.564 241.672 45.551 240.895 45.6795 240.163C48.701 241.022 53.3325 239.655 53.3325 234.435C53.3325 229.252 49.7355 224.888 42.992 225.979C44.596 225.212 45.412 223.642 45.577 221.887C44.352 222.364 42.992 222.432 42.992 222.432C43.7805 221.042 44.8755 219.844 44.8285 217.114C43.5785 217.682 42.417 218.735 40.815 218.069C43.33 213.12 40.24 206.313 32.3795 204.702C35.2565 208.075 36.665 211.716 36.665 215.341C36.665 227.089 33.4 229.063 33.4 237.231C33.4 240.648 35.1565 244.338 38.638 246.846V246.71C36.337 247.326 34.863 248.459 34.0155 249.999C39.273 251.49 46.9155 251.462 51.0185 249.848C55.7355 249.301 59.0285 245.683 59.9985 243.846C60.9685 242.011 62.853 235.369 59.9985 229.39C56.8735 222.846 42.1425 191.61 37.5495 181.791C36.5755 179.708 35.9845 177.499 35.9845 175.108C35.9845 169.093 41.4945 166.993 44.6245 166.993C48.366 166.993 52.1755 169.843 52.1755 173.403C52.1755 175.658 50.9505 177.017 49.182 177.017C44.953 177.017 45.21 173.419 46.053 171.152C43.421 172.336 41.891 174.448 42.3115 176.676C40.8215 176.88 39.403 177.587 38.094 179.063C39.124 180.363 40.38 181.346 42.3115 181.381C41.468 184.837 43.7815 186.299 46.053 187.109C45.3345 184.573 44.863 181.654 49.182 181.654C52.332 181.654 54.811 181.108 56.257 179.062C56.342 181.79 56.597 192.565 56.597 192.565C56.779 196.614 51.178 196.498 47.618 195.293C48.9615 199.956 51.717 202.478 58.094 201.839C56.546 202.487 54.8965 203.943 54.8965 206.749C54.8975 210.546 57.9775 214.752 59.9995 215.995L61.0105 176.47L61.01 176.47Z" fill="#FFEC2D"/>
<path d="M60.0001 36.461C60.0001 36.461 64.8051 32.423 66.4371 34.4485C69.0621 37.706 58.3671 53.9325 58.3671 59.6465C58.3671 69.026 64.6256 71.5765 72.3536 72.916C77.5391 73.815 85.9831 72.54 85.9831 72.54C84.3931 70.4035 83.3591 69.774 80.6801 69.6035C83.6626 68.055 86.6996 64.6935 86.6996 59.4615C86.6996 51.3925 83.3781 48.0665 83.3781 38.97C83.3781 33.9235 87.5161 27.4995 87.5161 27.4995C80.2016 28.2315 76.5766 35.004 78.6391 40.4165C77.4751 40.584 76.4181 40.3215 75.5101 39.4615C74.9751 40.9615 75.8201 42.703 76.9516 44.2035C76.0401 44.6905 75.3706 44.3985 73.9186 44.0985C74.0566 45.6445 74.9826 47.2865 77.2486 48.8325C70.6731 47.125 66.6271 51.708 66.6271 56.506C66.6271 60.13 69.1666 62.7275 71.6491 62.7275C72.4511 62.7275 73.6296 62.397 74.2941 61.9005C74.7631 62.898 74.5216 64.233 74.0391 65.2305C75.8581 64.7495 77.0131 63.669 76.1911 61.42C77.5886 61.2915 78.7001 60.8195 79.4561 59.92C78.6901 58.9385 77.5276 58.3735 76.1911 58.4195C77.2086 56.3195 76.0746 55.1445 74.4221 54.1915C74.4221 54.1915 75.4731 58.4195 72.7896 58.4195C71.5831 58.4195 70.4836 58.0265 70.4836 56.248C70.4836 54.6995 71.8371 52.5545 74.9666 52.691C78.0956 52.8275 80.6326 54.8485 80.6326 59.844C80.6326 64.452 76.9156 66.744 72.0176 66.892C67.6011 67.0285 64.2676 64.636 64.2676 60.0795C64.2676 54.0155 73.0216 40.193 73.0216 34.7895C73.0216 30.7345 69.3756 28.4715 65.8081 28.4715C61.1821 28.4715 57.2791 33.052 57.2791 33.052L59.9966 36.4595L60.0001 36.461Z" fill="#FFEC2D"/>
<path d="M58.99 146.07C58.99 156.205 68.089 161.414 75.239 161.414C84.872 161.414 90.001 155.655 90.001 148.115C90.001 143.841 89.218 141.16 87.2475 137.069C87.2475 137.069 71.3575 104.024 65.171 91.2425C64.3995 89.6485 64.1505 87.8335 64.1505 85.1735C64.1505 81.065 68.1355 77.707 72.314 77.604C76.123 77.509 80.273 81.155 80.273 85.31C80.273 90.3565 77.655 92.6065 74.967 92.6065C71.659 92.6065 70.341 91.2465 70.341 88.924C70.341 87.3055 71.1225 86.6055 72.246 86.6055C75.083 86.6055 74.2865 90.4245 74.2865 90.4245C75.6955 90.116 76.8535 88.676 76.1915 86.878C77.2614 86.6417 78.2272 86.068 78.9465 85.2415C78.186 84.504 77.3135 83.935 76.1915 83.7415C76.856 81.5475 75.968 80.476 74.0485 80.025C74.436 80.8685 74.449 81.645 74.3205 82.3775C71.299 81.518 66.6675 82.8855 66.6675 88.1055C66.6675 93.288 70.2645 97.652 77.008 96.5615C75.404 97.3285 74.588 98.898 74.423 100.653C75.648 100.176 77.008 100.108 77.008 100.108C76.2195 101.498 75.1245 102.697 75.1715 105.427C76.4215 104.858 77.583 103.806 79.185 104.472C76.67 109.421 79.76 116.228 87.6205 117.838C84.7435 114.466 83.335 110.825 83.335 107.2C83.335 95.4515 86.6 93.477 86.6 85.3095C86.6 81.892 84.8435 78.202 81.362 75.694V75.8305C83.663 75.214 85.137 74.081 85.9845 72.5415C80.727 71.0505 73.0845 71.078 68.9815 72.6925C64.2645 73.239 60.9715 76.8575 60.0015 78.6945C59.0315 80.5295 57.147 87.171 60.0015 93.1505C63.1265 99.6945 77.8575 130.931 82.4505 140.75C83.4245 142.832 84.0155 145.041 84.0155 147.433C84.0155 153.448 78.5055 155.548 75.3755 155.548C71.634 155.548 67.8245 152.698 67.8245 149.138C67.8245 146.882 69.0495 145.524 70.818 145.524C75.047 145.524 74.79 149.121 73.947 151.388C76.579 150.205 78.109 148.092 77.6885 145.865C79.1785 145.66 80.597 144.954 81.906 143.478C80.876 142.178 79.62 141.194 77.6885 141.159C78.532 137.703 76.2185 136.242 73.947 135.431C74.6655 137.968 75.137 140.887 70.818 140.887C67.668 140.887 65.189 141.432 63.743 143.478C63.658 140.75 63.403 129.975 63.403 129.975C63.221 125.926 68.822 126.042 72.382 127.248C71.0385 122.584 68.283 120.063 61.906 120.701C63.454 120.054 65.1035 118.597 65.1035 115.791C65.1025 111.995 62.0225 107.789 60.0005 106.545L58.9895 146.071L58.99 146.07Z" fill="#FFEC2D"/>
<path d="M58.99 176.47C58.99 166.335 68.089 161.126 75.239 161.126C84.872 161.126 90.001 166.886 90.001 174.425C90.001 178.699 89.218 181.381 87.2475 185.471C87.2475 185.471 71.3575 218.517 65.171 231.298C64.3995 232.892 64.1505 234.707 64.1505 237.367C64.1505 241.475 68.1355 244.833 72.314 244.936C76.123 245.031 80.273 241.385 80.273 237.23C80.273 232.184 77.655 229.934 74.967 229.934C71.659 229.934 70.341 231.294 70.341 233.616C70.341 235.235 71.1225 235.935 72.246 235.935C75.083 235.935 74.2865 232.116 74.2865 232.116C75.6955 232.424 76.8535 233.864 76.1915 235.662C77.2614 235.898 78.2272 236.472 78.9465 237.299C78.186 238.036 77.3135 238.605 76.1915 238.799C76.856 240.993 75.968 242.064 74.0485 242.515C74.436 241.672 74.449 240.895 74.3205 240.163C71.299 241.022 66.6675 239.655 66.6675 234.435C66.6675 229.252 70.2645 224.888 77.008 225.979C75.404 225.212 74.588 223.642 74.423 221.887C75.648 222.364 77.008 222.432 77.008 222.432C76.2195 221.042 75.1245 219.844 75.1715 217.114C76.4215 217.682 77.583 218.735 79.185 218.069C76.67 213.12 79.76 206.313 87.6205 204.702C84.7435 208.075 83.335 211.716 83.335 215.341C83.335 227.089 86.6 229.063 86.6 237.231C86.6 240.648 84.8435 244.338 81.362 246.846V246.71C83.663 247.326 85.137 248.459 85.9845 249.999C80.727 251.49 73.0845 251.462 68.9815 249.848C64.2645 249.301 60.9715 245.683 60.0015 243.846C59.0315 242.011 57.147 235.369 60.0015 229.39C63.1265 222.846 77.8575 191.61 82.4505 181.791C83.4245 179.708 84.0155 177.499 84.0155 175.108C84.0155 169.093 78.5055 166.993 75.3755 166.993C71.634 166.993 67.8245 169.843 67.8245 173.403C67.8245 175.658 69.0495 177.017 70.818 177.017C75.047 177.017 74.79 173.419 73.947 171.152C76.579 172.336 78.109 174.448 77.6885 176.676C79.1785 176.88 80.597 177.587 81.906 179.063C80.876 180.363 79.62 181.346 77.6885 181.381C78.532 184.837 76.2185 186.299 73.947 187.109C74.6655 184.573 75.137 181.654 70.818 181.654C67.668 181.654 65.189 181.108 63.743 179.062C63.658 181.79 63.403 192.565 63.403 192.565C63.221 196.614 68.822 196.498 72.382 195.293C71.0385 199.956 68.283 202.478 61.906 201.839C63.454 202.487 65.1035 203.943 65.1035 206.749C65.1025 210.546 62.0225 214.752 60.0005 215.995L58.9895 176.47L58.99 176.47Z" fill="#FFEC2D"/>
<path d="M60 463.539C60 463.539 55.195 467.577 53.563 465.551C50.938 462.294 61.633 446.067 61.633 440.353C61.633 430.974 55.3745 428.423 47.6465 427.084C42.461 426.185 34.017 427.46 34.017 427.46C35.607 429.596 36.641 430.226 39.32 430.396C36.3375 431.945 33.3005 435.306 33.3005 440.538C33.3005 448.607 36.622 451.933 36.622 461.03C36.622 466.076 32.484 472.5 32.484 472.5C39.7985 471.768 43.4235 464.996 41.361 459.583C42.525 459.416 43.582 459.678 44.49 460.538C45.025 459.038 44.18 457.297 43.0485 455.796C43.96 455.309 44.6295 455.601 46.0815 455.901C45.9435 454.355 45.0175 452.713 42.7515 451.167C49.327 452.875 53.373 448.292 53.373 443.494C53.373 439.87 50.8335 437.272 48.351 437.272C47.549 437.272 46.3705 437.603 45.706 438.099C45.237 437.102 45.4785 435.767 45.961 434.769C44.142 435.25 42.987 436.331 43.809 438.58C42.4115 438.708 41.3 439.18 40.544 440.08C41.31 441.061 42.4725 441.626 43.809 441.58C42.7915 443.68 43.9255 444.855 45.578 445.808C45.578 445.808 44.527 441.58 47.2105 441.58C48.417 441.58 49.5165 441.973 49.5165 443.752C49.5165 445.3 48.163 447.445 45.0335 447.309C41.9045 447.172 39.3675 445.151 39.3675 440.156C39.3675 435.548 43.0845 433.256 47.9825 433.108C52.399 432.971 55.7325 435.364 55.7325 439.92C55.7325 445.984 46.9785 459.807 46.9785 465.21C46.9785 469.265 50.6245 471.528 54.192 471.528C58.818 471.528 62.721 466.948 62.721 466.948L60.0035 463.54L60 463.539Z" fill="#FFEC2D"/>
<path d="M61.01 353.93C61.01 343.795 51.911 338.586 44.761 338.586C35.128 338.586 29.999 344.345 29.999 351.885C29.999 356.159 30.782 358.84 32.7525 362.931C32.7525 362.931 48.6425 395.976 54.829 408.757C55.6005 410.351 55.8495 412.166 55.8495 414.826C55.8495 418.935 51.8645 422.293 47.686 422.396C43.877 422.491 39.727 418.845 39.727 414.69C39.727 409.643 42.345 407.393 45.033 407.393C48.341 407.393 49.659 408.753 49.659 411.076C49.659 412.694 48.8775 413.394 47.754 413.394C44.917 413.394 45.7135 409.575 45.7135 409.575C44.3045 409.884 43.1465 411.324 43.8085 413.122C42.7386 413.358 41.7729 413.932 41.0535 414.758C41.814 415.496 42.6865 416.065 43.8085 416.258C43.144 418.452 44.032 419.524 45.9515 419.975C45.564 419.131 45.551 418.355 45.6795 417.622C48.701 418.482 53.3325 417.114 53.3325 411.894C53.3325 406.712 49.7355 402.348 42.992 403.438C44.596 402.671 45.412 401.102 45.577 399.347C44.352 399.824 42.992 399.892 42.992 399.892C43.7805 398.502 44.8755 397.303 44.8285 394.573C43.5785 395.142 42.417 396.194 40.815 395.528C43.33 390.579 40.24 383.772 32.3795 382.162C35.2565 385.534 36.665 389.175 36.665 392.8C36.665 404.548 33.4 406.523 33.4 414.69C33.4 418.108 35.1565 421.798 38.638 424.306V424.169C36.337 424.786 34.863 425.919 34.0155 427.458C39.273 428.949 46.9155 428.922 51.0185 427.307C55.7355 426.761 59.0285 423.142 59.9985 421.305C60.9685 419.47 62.853 412.829 59.9985 406.849C56.8735 400.305 42.1425 369.069 37.5495 359.25C36.5755 357.168 35.9845 354.959 35.9845 352.567C35.9845 346.552 41.4945 344.452 44.6245 344.452C48.366 344.452 52.1755 347.302 52.1755 350.862C52.1755 353.118 50.9505 354.476 49.182 354.476C44.953 354.476 45.21 350.879 46.053 348.612C43.421 349.795 41.891 351.908 42.3115 354.135C40.8215 354.34 39.403 355.046 38.094 356.522C39.124 357.822 40.38 358.806 42.3115 358.841C41.468 362.297 43.7815 363.758 46.053 364.569C45.3345 362.032 44.863 359.113 49.182 359.113C52.332 359.113 54.811 358.568 56.257 356.522C56.342 359.25 56.597 370.025 56.597 370.025C56.779 374.074 51.178 373.958 47.618 372.752C48.9615 377.416 51.717 379.937 58.094 379.299C56.546 379.946 54.8965 381.403 54.8965 384.209C54.8975 388.005 57.9775 392.211 59.9995 393.455L61.0105 353.929L61.01 353.93Z" fill="#FFEC2D"/>
<path d="M61.01 323.53C61.01 333.665 51.911 338.874 44.761 338.874C35.128 338.874 29.999 333.115 29.999 325.575C29.999 321.301 30.782 318.619 32.7525 314.529C32.7525 314.529 48.6425 281.483 54.829 268.702C55.6005 267.108 55.8495 265.293 55.8495 262.633C55.8495 258.525 51.8645 255.167 47.686 255.064C43.877 254.969 39.727 258.615 39.727 262.77C39.727 267.816 42.345 270.066 45.033 270.066C48.341 270.066 49.659 268.707 49.659 266.384C49.659 264.766 48.8775 264.065 47.754 264.065C44.917 264.065 45.7135 267.884 45.7135 267.884C44.3045 267.576 43.1465 266.136 43.8085 264.338C42.7386 264.102 41.7729 263.528 41.0535 262.701C41.814 261.964 42.6865 261.395 43.8085 261.201C43.144 259.007 44.032 257.936 45.9515 257.485C45.564 258.328 45.551 259.105 45.6795 259.837C48.701 258.978 53.3325 260.345 53.3325 265.565C53.3325 270.748 49.7355 275.112 42.992 274.021C44.596 274.788 45.412 276.358 45.577 278.113C44.352 277.636 42.992 277.568 42.992 277.568C43.7805 278.958 44.8755 280.156 44.8285 282.886C43.5785 282.318 42.417 281.265 40.815 281.931C43.33 286.88 40.24 293.687 32.3795 295.298C35.2565 291.925 36.665 288.284 36.665 284.659C36.665 272.911 33.4 270.937 33.4 262.769C33.4 259.352 35.1565 255.662 38.638 253.154V253.29C36.337 252.674 34.863 251.541 34.0155 250.001C39.273 248.51 46.9155 248.538 51.0185 250.152C55.7355 250.699 59.0285 254.317 59.9985 256.155C60.9685 257.99 62.853 264.631 59.9985 270.61C56.8735 277.154 42.1425 308.39 37.5495 318.209C36.5755 320.292 35.9845 322.501 35.9845 324.892C35.9845 330.907 41.4945 333.007 44.6245 333.007C48.366 333.007 52.1755 330.157 52.1755 326.597C52.1755 324.342 50.9505 322.983 49.182 322.983C44.953 322.983 45.21 326.581 46.053 328.848C43.421 327.664 41.891 325.552 42.3115 323.325C40.8215 323.12 39.403 322.413 38.094 320.937C39.124 319.637 40.38 318.654 42.3115 318.619C41.468 315.163 43.7815 313.701 46.053 312.891C45.3345 315.427 44.863 318.347 49.182 318.347C52.332 318.347 54.811 318.892 56.257 320.938C56.342 318.21 56.597 307.435 56.597 307.435C56.779 303.386 51.178 303.502 47.618 304.707C48.9615 300.044 51.717 297.522 58.094 298.161C56.546 297.513 54.8965 296.057 54.8965 293.251C54.8975 289.454 57.9775 285.248 59.9995 284.005L61.0105 323.53L61.01 323.53Z" fill="#FFEC2D"/>
<path d="M60.0001 463.539C60.0001 463.539 64.8051 467.577 66.4371 465.551C69.0621 462.294 58.3671 446.067 58.3671 440.353C58.3671 430.974 64.6256 428.423 72.3536 427.084C77.5391 426.185 85.9831 427.46 85.9831 427.46C84.3931 429.596 83.3591 430.226 80.6801 430.396C83.6626 431.945 86.6996 435.306 86.6996 440.538C86.6996 448.607 83.3781 451.933 83.3781 461.03C83.3781 466.076 87.5161 472.5 87.5161 472.5C80.2016 471.768 76.5766 464.996 78.6391 459.583C77.4751 459.416 76.4181 459.678 75.5101 460.538C74.9751 459.038 75.8201 457.297 76.9516 455.796C76.0401 455.309 75.3706 455.601 73.9186 455.901C74.0566 454.355 74.9826 452.713 77.2486 451.167C70.6731 452.875 66.6271 448.292 66.6271 443.494C66.6271 439.87 69.1666 437.272 71.6491 437.272C72.4511 437.272 73.6296 437.603 74.2941 438.099C74.7631 437.102 74.5216 435.767 74.0391 434.769C75.8581 435.25 77.0131 436.331 76.1911 438.58C77.5886 438.708 78.7001 439.18 79.4561 440.08C78.6901 441.061 77.5276 441.626 76.1911 441.58C77.2086 443.68 76.0746 444.855 74.4221 445.808C74.4221 445.808 75.4731 441.58 72.7896 441.58C71.5831 441.58 70.4836 441.973 70.4836 443.752C70.4836 445.3 71.8371 447.445 74.9666 447.309C78.0956 447.172 80.6326 445.151 80.6326 440.156C80.6326 435.548 76.9156 433.256 72.0176 433.108C67.6011 432.971 64.2676 435.364 64.2676 439.92C64.2676 445.984 73.0216 459.807 73.0216 465.21C73.0216 469.265 69.3756 471.528 65.8081 471.528C61.1821 471.528 57.2791 466.948 57.2791 466.948L59.9966 463.54L60.0001 463.539Z" fill="#FFEC2D"/>
<path d="M58.99 353.93C58.99 343.795 68.089 338.586 75.239 338.586C84.872 338.586 90.001 344.345 90.001 351.885C90.001 356.159 89.218 358.84 87.2475 362.931C87.2475 362.931 71.3575 395.976 65.171 408.757C64.3995 410.351 64.1505 412.166 64.1505 414.826C64.1505 418.935 68.1355 422.293 72.314 422.396C76.123 422.491 80.273 418.845 80.273 414.69C80.273 409.643 77.655 407.393 74.967 407.393C71.659 407.393 70.341 408.753 70.341 411.076C70.341 412.694 71.1225 413.394 72.246 413.394C75.083 413.394 74.2865 409.575 74.2865 409.575C75.6955 409.884 76.8535 411.324 76.1915 413.122C77.2614 413.358 78.2272 413.932 78.9465 414.758C78.186 415.496 77.3135 416.065 76.1915 416.258C76.856 418.452 75.968 419.524 74.0485 419.975C74.436 419.131 74.449 418.355 74.3205 417.622C71.299 418.482 66.6675 417.114 66.6675 411.894C66.6675 406.712 70.2645 402.348 77.008 403.438C75.404 402.671 74.588 401.102 74.423 399.347C75.648 399.824 77.008 399.892 77.008 399.892C76.2195 398.502 75.1245 397.303 75.1715 394.573C76.4215 395.142 77.583 396.194 79.185 395.528C76.67 390.579 79.76 383.772 87.6205 382.162C84.7435 385.534 83.335 389.175 83.335 392.8C83.335 404.548 86.6 406.523 86.6 414.69C86.6 418.108 84.8435 421.798 81.362 424.306V424.169C83.663 424.786 85.137 425.919 85.9845 427.458C80.727 428.949 73.0845 428.922 68.9815 427.307C64.2645 426.761 60.9715 423.142 60.0015 421.305C59.0315 419.47 57.147 412.829 60.0015 406.849C63.1265 400.305 77.8575 369.069 82.4505 359.25C83.4245 357.168 84.0155 354.959 84.0155 352.567C84.0155 346.552 78.5055 344.452 75.3755 344.452C71.634 344.452 67.8245 347.302 67.8245 350.862C67.8245 353.118 69.0495 354.476 70.818 354.476C75.047 354.476 74.79 350.879 73.947 348.612C76.579 349.795 78.109 351.908 77.6885 354.135C79.1785 354.34 80.597 355.046 81.906 356.522C80.876 357.822 79.62 358.806 77.6885 358.841C78.532 362.297 76.2185 363.758 73.947 364.569C74.6655 362.032 75.137 359.113 70.818 359.113C67.668 359.113 65.189 358.568 63.743 356.522C63.658 359.25 63.403 370.025 63.403 370.025C63.221 374.074 68.822 373.958 72.382 372.752C71.0385 377.416 68.283 379.937 61.906 379.299C63.454 379.946 65.1035 381.403 65.1035 384.209C65.1025 388.005 62.0225 392.211 60.0005 393.455L58.9895 353.929L58.99 353.93Z" fill="#FFEC2D"/>
<path d="M58.99 323.53C58.99 333.665 68.089 338.874 75.239 338.874C84.872 338.874 90.001 333.115 90.001 325.575C90.001 321.301 89.218 318.619 87.2475 314.529C87.2475 314.529 71.3575 281.483 65.171 268.702C64.3995 267.108 64.1505 265.293 64.1505 262.633C64.1505 258.525 68.1355 255.167 72.314 255.064C76.123 254.969 80.273 258.615 80.273 262.77C80.273 267.816 77.655 270.066 74.967 270.066C71.659 270.066 70.341 268.707 70.341 266.384C70.341 264.766 71.1225 264.065 72.246 264.065C75.083 264.065 74.2865 267.884 74.2865 267.884C75.6955 267.576 76.8535 266.136 76.1915 264.338C77.2614 264.102 78.2272 263.528 78.9465 262.701C78.186 261.964 77.3135 261.395 76.1915 261.201C76.856 259.007 75.968 257.936 74.0485 257.485C74.436 258.328 74.449 259.105 74.3205 259.837C71.299 258.978 66.6675 260.345 66.6675 265.565C66.6675 270.748 70.2645 275.112 77.008 274.021C75.404 274.788 74.588 276.358 74.423 278.113C75.648 277.636 77.008 277.568 77.008 277.568C76.2195 278.958 75.1245 280.156 75.1715 282.886C76.4215 282.318 77.583 281.265 79.185 281.931C76.67 286.88 79.76 293.687 87.6205 295.298C84.7435 291.925 83.335 288.284 83.335 284.659C83.335 272.911 86.6 270.937 86.6 262.769C86.6 259.352 84.8435 255.662 81.362 253.154V253.29C83.663 252.674 85.137 251.541 85.9845 250.001C80.727 248.51 73.0845 248.538 68.9815 250.152C64.2645 250.699 60.9715 254.317 60.0015 256.155C59.0315 257.99 57.147 264.631 60.0015 270.61C63.1265 277.154 77.8575 308.39 82.4505 318.209C83.4245 320.292 84.0155 322.501 84.0155 324.892C84.0155 330.907 78.5055 333.007 75.3755 333.007C71.634 333.007 67.8245 330.157 67.8245 326.597C67.8245 324.342 69.0495 322.983 70.818 322.983C75.047 322.983 74.79 326.581 73.947 328.848C76.579 327.664 78.109 325.552 77.6885 323.325C79.1785 323.12 80.597 322.413 81.906 320.937C80.876 319.637 79.62 318.654 77.6885 318.619C78.532 315.163 76.2185 313.701 73.947 312.891C74.6655 315.427 75.137 318.347 70.818 318.347C67.668 318.347 65.189 318.892 63.743 320.938C63.658 318.21 63.403 307.435 63.403 307.435C63.221 303.386 68.822 303.502 72.382 304.707C71.0385 300.044 68.283 297.522 61.906 298.161C63.454 297.513 65.1035 296.057 65.1035 293.251C65.1025 289.454 62.0225 285.248 60.0005 284.005L58.9895 323.53L58.99 323.53Z" fill="#FFEC2D"/>
</svg>
