<svg width="255" height="240" viewBox="0 0 255 240" fill="none" xmlns="http://www.w3.org/2000/svg">
<path d="M225.623 120.625H239.373C239.034 185.995 185.446 239.375 120 239.375C54.3452 239.375 0.625015 185.655 0.625015 120C0.625015 54.3452 54.3452 0.625012 120 0.625012C122.113 0.625012 124.127 0.629311 126.125 1.20975V91.5V91.995L126.607 92.1084C139.077 95.0426 148.625 106.793 148.625 120C148.625 136.155 135.405 149.375 119.25 149.375C103.095 149.375 89.875 136.155 89.875 120C89.875 106.042 99.4229 94.2963 112.636 91.3601L113.125 91.2514V90.75V57.75V57.0462L112.426 57.1294C80.603 60.9179 57.125 88.1923 57.125 120C57.125 154.845 85.1548 182.875 120 182.875C154.637 182.875 182.539 155.18 182.872 120.625H196.623C196.308 160.511 165.921 192.926 126.692 196.628C84.2881 200.346 47.0924 169.101 43.3726 126.695C39.6528 84.2898 70.8979 47.0925 113.305 43.3726L113.875 43.3226V42.75V15V14.3314L113.208 14.3764C57.3802 18.1486 14.375 64.1708 14.375 120C14.375 178.095 61.9048 225.625 120 225.625C177.887 225.625 225.284 178.436 225.623 120.625ZM120 135.625C128.595 135.625 135.625 128.595 135.625 120C135.625 111.405 128.595 104.375 120 104.375C111.405 104.375 104.375 111.405 104.375 120C104.375 128.595 111.405 135.625 120 135.625Z" fill="white" stroke="white" stroke-width="1.25"/>
<g clip-path="url(#clip0_8_8)">
<path d="M161.335 79.1522L155.993 69.5394L190.729 54.4814C190.729 54.4813 190.729 54.4813 190.729 54.4813C192.077 53.8975 193.531 53.5964 195 53.5964C196.469 53.5964 197.923 53.8975 199.271 54.4813C199.271 54.4813 199.271 54.4813 199.271 54.4814L234.007 69.5319L228.665 79.1446L228.379 79.6601L228.934 79.8584C231.716 80.8512 233.102 82.9142 234.251 85.0127L234.687 85.8077L235.127 85.0154L243.715 69.5578L243.715 69.5566C244.001 69.0388 244.176 68.4669 244.228 67.8777C244.28 67.2884 244.209 66.6948 244.018 66.1347C243.828 65.5747 243.523 65.0605 243.122 64.6252C242.722 64.1899 242.235 63.843 241.692 63.6067L241.691 63.6063L233 59.8369V33.75C233 32.6229 232.552 31.5418 231.755 30.7448C230.958 29.9478 229.877 29.5 228.75 29.5H210.5V18.75C210.5 17.6229 210.052 16.5418 209.255 15.7448C208.458 14.9478 207.377 14.5 206.25 14.5H183.75C182.623 14.5 181.542 14.9478 180.745 15.7448C179.948 16.5418 179.5 17.6229 179.5 18.75V29.5H161.25C160.123 29.5 159.042 29.9478 158.245 30.7448C157.448 31.5418 157 32.6229 157 33.75V59.829L148.302 63.5911L148.301 63.5912C147.755 63.8278 147.265 64.1765 146.862 64.6148C146.459 65.053 146.153 65.5709 145.963 66.1351C145.773 66.6992 145.704 67.2969 145.759 67.8896C145.815 68.4817 145.995 69.0555 146.286 69.5739C146.286 69.5743 146.287 69.5748 146.287 69.5752L154.873 85.0229L155.313 85.815L155.749 85.0202C156.898 82.9223 158.292 80.8587 161.066 79.8658L161.621 79.6672L161.335 79.1522ZM187.346 46.6862L165.5 56.1486V38H224.5V56.1486L202.654 46.6862C200.238 45.6394 197.633 45.0993 195 45.0993C192.367 45.0993 189.762 45.6394 187.346 46.6862ZM188 29.5V23H202V29.5H188Z" fill="white" stroke="white"/>
</g>
<defs>
<clipPath id="clip0_8_8">
<rect width="120" height="120" fill="white" transform="translate(135 1.23978e-05)"/>
</clipPath>
</defs>
</svg>
