<svg width="270" height="270" viewBox="0 0 270 270" fill="none" xmlns="http://www.w3.org/2000/svg">
<path d="M240.623 135.625H254.373C254.034 200.995 200.446 254.375 135 254.375C69.3452 254.375 15.625 200.655 15.625 135C15.625 69.3452 69.3452 15.625 135 15.625C137.113 15.625 139.127 15.6293 141.125 16.2097V106.5V106.995L141.607 107.108C154.077 110.043 163.625 121.793 163.625 135C163.625 151.155 150.405 164.375 134.25 164.375C118.095 164.375 104.875 151.155 104.875 135C104.875 121.042 114.423 109.296 127.636 106.36L128.125 106.251V105.75V72.75V72.0462L127.426 72.1294C95.603 75.9179 72.125 103.192 72.125 135C72.125 169.845 100.155 197.875 135 197.875C169.637 197.875 197.539 170.18 197.872 135.625H211.623C211.308 175.511 180.921 207.926 141.692 211.628C99.2881 215.346 62.0924 184.101 58.3726 141.695C54.6528 99.2898 85.8979 62.0925 128.305 58.3726L128.875 58.3226V57.75V30V29.3314L128.208 29.3764C72.3802 33.1486 29.375 79.1708 29.375 135C29.375 193.095 76.9048 240.625 135 240.625C192.887 240.625 240.284 193.436 240.623 135.625ZM135 150.625C143.595 150.625 150.625 143.595 150.625 135C150.625 126.405 143.595 119.375 135 119.375C126.405 119.375 119.375 126.405 119.375 135C119.375 143.595 126.405 150.625 135 150.625Z" fill="#FFE884" stroke="white" stroke-width="1.25"/>
<g clip-path="url(#clip0_8_7)">
<path d="M176.335 94.1522L170.993 84.5394L205.729 69.4814C205.729 69.4813 205.729 69.4813 205.729 69.4813C207.077 68.8975 208.531 68.5964 210 68.5964C211.469 68.5964 212.923 68.8975 214.271 69.4813C214.271 69.4813 214.271 69.4813 214.271 69.4814L249.007 84.5319L243.665 94.1446L243.379 94.6601L243.934 94.8584C246.716 95.8512 248.102 97.9142 249.251 100.013L249.687 100.808L250.127 100.015L258.715 84.5578L258.715 84.5566C259.001 84.0388 259.176 83.4669 259.228 82.8777C259.28 82.2884 259.209 81.6948 259.018 81.1347C258.828 80.5747 258.523 80.0605 258.122 79.6252C257.722 79.1899 257.235 78.843 256.692 78.6067L256.691 78.6063L248 74.8369V48.75C248 47.6229 247.552 46.5419 246.755 45.7448C245.958 44.9478 244.877 44.5 243.75 44.5H225.5V33.75C225.5 32.6229 225.052 31.5418 224.255 30.7448C223.458 29.9478 222.377 29.5 221.25 29.5H198.75C197.623 29.5 196.542 29.9478 195.745 30.7448C194.948 31.5418 194.5 32.6229 194.5 33.75V44.5H176.25C175.123 44.5 174.042 44.9478 173.245 45.7448C172.448 46.5419 172 47.6229 172 48.75V74.829L163.302 78.5911L163.301 78.5912C162.755 78.8278 162.265 79.1765 161.862 79.6148C161.459 80.053 161.153 80.5709 160.963 81.1351C160.773 81.6992 160.704 82.2969 160.759 82.8896C160.815 83.4817 160.995 84.0555 161.286 84.5739C161.286 84.5743 161.287 84.5748 161.287 84.5752L169.873 100.023L170.313 100.815L170.749 100.02C171.898 97.9223 173.292 95.8587 176.066 94.8658L176.621 94.6672L176.335 94.1522ZM202.346 61.6862L180.5 71.1486V53H239.5V71.1486L217.654 61.6862C215.238 60.6394 212.633 60.0993 210 60.0993C207.367 60.0993 204.762 60.6394 202.346 61.6862ZM203 44.5V38H217V44.5H203Z" fill="#FFE884" stroke="#FFE884"/>
</g>
<defs>
<clipPath id="clip0_8_7">
<rect width="120" height="120" fill="white" transform="translate(150 15)"/>
</clipPath>
</defs>
</svg>
