<svg width="461" height="700" viewBox="0 0 461 700" fill="none" xmlns="http://www.w3.org/2000/svg">
<path d="M217.086 0.546875C151.714 4.48438 91.5977 35.4375 50.8085 86.2422C25.4043 117.852 8.76009 155.641 2.79227 195.234C-0.711765 218.641 -0.492763 245.602 3.33978 267.805C13.0306 323.969 41.939 372.859 86.7797 408.898C97.0728 417.156 115.524 429.188 124.393 433.453C125.488 433.945 126.583 434.766 126.748 435.258C126.967 435.75 132.606 450.625 139.34 468.398C172.191 555.078 199.128 622.891 225.572 685.398L231.814 700.055L238.056 699.891L244.352 699.727L290.726 566.562L337.154 433.398L343.615 429.68C399.57 397.633 439.264 345.297 454.375 283.828C461.055 256.484 462.533 225.805 458.481 197.148C456.675 184.516 453.225 169.859 449.174 157.664C422.346 77.1641 353.525 17.9922 269.92 3.55469C253.605 0.765625 233.019 -0.4375 217.086 0.546875Z" fill="#00ABC2"/>
<path d="M230.692 267.967C267.847 267.967 297.967 237.847 297.967 200.692C297.967 163.537 267.847 133.417 230.692 133.417C193.537 133.417 163.417 163.537 163.417 200.692C163.417 237.847 193.537 267.967 230.692 267.967Z" fill="#FFEC2D"/>
<path d="M245.606 125.711C249.539 126.442 251.498 124.283 252.084 121.34C252.864 117.417 251.186 97.6602 251.186 97.6602C251.186 97.6602 242.075 115.271 241.295 119.194C240.71 122.137 241.683 124.93 245.606 125.711Z" fill="#FFEC2D"/>
<path d="M305.673 215.606C304.942 219.539 307.101 221.498 310.043 222.083C313.966 222.864 333.723 221.186 333.723 221.186C333.723 221.186 316.112 212.075 312.189 211.295C309.247 210.71 306.453 211.683 305.673 215.606Z" fill="#FFEC2D"/>
<path d="M215.777 275.673C211.844 274.941 209.885 277.101 209.3 280.043C208.52 283.966 210.198 303.723 210.198 303.723C210.198 303.723 219.308 286.112 220.089 282.189C220.674 279.247 219.7 276.453 215.777 275.673Z" fill="#FFEC2D"/>
<path d="M155.711 185.777C156.442 181.844 154.283 179.885 151.34 179.3C147.417 178.52 127.66 180.198 127.66 180.198C127.66 180.198 145.271 189.308 149.194 190.089C152.137 190.674 154.93 189.7 155.711 185.777Z" fill="#FFEC2D"/>
<path d="M273.165 137.126C276.519 139.307 279.155 138.061 280.822 135.567C283.044 132.241 289.054 113.346 289.054 113.346C289.054 113.346 273.898 126.13 271.675 129.456C270.009 131.95 269.839 134.904 273.165 137.126Z" fill="#FFEC2D"/>
<path d="M294.258 243.165C292.077 246.519 293.322 249.155 295.817 250.822C299.143 253.044 318.038 259.054 318.038 259.054C318.038 259.054 305.254 243.898 301.928 241.675C299.434 240.009 296.48 239.839 294.258 243.165Z" fill="#FFEC2D"/>
<path d="M188.218 264.258C184.865 262.077 182.229 263.322 180.562 265.817C178.34 269.142 172.329 288.038 172.329 288.038C172.329 288.038 187.486 275.254 189.708 271.928C191.375 269.433 191.544 266.48 188.218 264.258Z" fill="#FFEC2D"/>
<path d="M167.126 158.218C169.307 154.865 168.061 152.229 165.567 150.562C162.241 148.34 143.346 142.329 143.346 142.329C143.346 142.329 156.13 157.486 159.456 159.708C161.95 161.375 164.904 161.544 167.126 158.218Z" fill="#FFEC2D"/>
<path d="M294.258 158.218C296.522 161.517 299.434 161.375 301.928 159.708C305.254 157.486 318.038 142.329 318.038 142.329C318.038 142.329 299.143 148.34 295.817 150.562C293.322 152.229 292.035 154.893 294.258 158.218Z" fill="#FFEC2D"/>
<path d="M273.165 264.258C269.867 266.521 270.009 269.433 271.675 271.928C273.898 275.254 289.054 288.038 289.054 288.038C289.054 288.038 283.044 269.142 280.822 265.817C279.155 263.322 276.491 262.035 273.165 264.258Z" fill="#FFEC2D"/>
<path d="M167.126 243.165C164.862 239.867 161.95 240.009 159.456 241.675C156.13 243.898 143.346 259.054 143.346 259.054C143.346 259.054 162.241 253.044 165.567 250.822C168.061 249.155 169.348 246.491 167.126 243.165Z" fill="#FFEC2D"/>
<path d="M188.218 137.126C191.517 134.862 191.375 131.95 189.708 129.456C187.486 126.13 172.329 113.346 172.329 113.346C172.329 113.346 178.34 132.241 180.562 135.567C182.229 138.061 184.893 139.348 188.218 137.126Z" fill="#FFEC2D"/>
<path d="M305.673 185.777C306.502 189.691 309.247 190.674 312.189 190.089C316.112 189.308 333.723 180.198 333.723 180.198C333.723 180.198 313.966 178.52 310.043 179.3C307.101 179.885 304.892 181.854 305.673 185.777Z" fill="#FFEC2D"/>
<path d="M245.606 275.673C241.693 276.502 240.71 279.247 241.295 282.189C242.075 286.112 251.186 303.723 251.186 303.723C251.186 303.723 252.864 283.966 252.084 280.043C251.498 277.101 249.53 274.892 245.606 275.673Z" fill="#FFEC2D"/>
<path d="M155.711 215.606C154.881 211.693 152.137 210.71 149.194 211.295C145.271 212.075 127.66 221.186 127.66 221.186C127.66 221.186 147.417 222.864 151.34 222.083C154.283 221.498 156.491 219.53 155.711 215.606Z" fill="#FFEC2D"/>
<path d="M215.777 125.711C219.691 124.881 220.674 122.137 220.089 119.194C219.308 115.271 210.198 97.6603 210.198 97.6603C210.198 97.6603 208.52 117.417 209.3 121.34C209.885 124.283 211.854 126.491 215.777 125.711Z" fill="#FFEC2D"/>
<path d="M218.689 346.425C216.889 346.525 215.139 346.758 213.422 347.308C211.072 347.625 208.822 348.442 206.489 348.825L205.556 348.975L203.989 349.125C204.089 349.558 204.156 349.992 204.156 350.425C204.156 350.875 204.106 351.308 203.989 351.675C203.889 352.025 203.572 352.458 203.322 352.725C202.989 353.092 202.639 353.408 202.222 353.608C201.822 353.808 201.372 353.892 200.922 353.925C200.472 353.942 200.006 353.925 199.572 353.758C199.122 353.608 198.706 353.325 198.322 352.992C197.856 353.108 197.372 353.192 196.922 353.242C196.456 353.292 196.022 353.292 195.606 353.242C195.139 353.108 194.656 352.958 194.206 352.775C193.753 352.587 193.318 352.359 192.906 352.092C191.206 353.092 189.306 354.042 188.272 355.792C187.689 356.592 187.572 357.508 187.439 358.458C187.356 359.625 187.656 360.858 188.156 361.942C188.339 362.258 188.489 360.792 189.056 360.592C190.006 359.808 191.189 359.242 192.389 358.925C193.406 358.408 193.272 358.958 192.856 359.758C192.756 360.175 192.189 361.758 192.956 360.958C196.339 359.458 200.089 359.158 203.739 358.875C209.039 358.325 214.356 358.208 219.672 358.142C224.672 358.208 229.672 358.275 234.672 358.458C237.056 358.525 239.456 359.058 241.806 358.658C242.372 358.508 243.256 358.475 243.589 358.142C242.522 357.525 241.272 357.508 240.089 357.358H230.556C227.906 357.092 225.139 357.058 222.639 356.058C221.972 355.792 221.356 355.158 220.722 355.842C219.772 356.175 218.756 356.408 217.756 356.475C216.006 356.608 214.256 356.242 212.639 355.592C213.806 353.975 215.206 352.558 216.489 351.058C215.456 350.892 214.456 350.675 213.422 350.425C215.239 349.175 216.922 347.758 218.689 346.425V346.425Z" fill="#FFEC2D"/>
<path d="M296.556 363.697C292.933 365.872 290.168 362.016 287.14 360.859C284.978 362.034 284.776 365.963 282.755 367.824C280.338 370.575 277.375 367.056 277.596 364.342C274.705 366.779 273.243 372.303 268.567 371.565C266.352 369.757 264.707 365.964 263.014 370.283C261.634 372.394 257.959 375.398 256.056 372.21C255.467 369.395 254.056 366.085 252.525 370.556C251.474 373.718 248.1 376.045 244.835 374.66C243.048 373.199 246.268 367.797 243.993 368.181C240.593 370.429 238.617 376.01 233.872 375.563C232.03 373.495 234.99 369.991 232.969 367.696C230.584 370.757 227.938 375.24 223.812 375.563C221.818 373.947 223.89 369.313 222.617 368.627C218.383 371.166 213.916 375.691 208.592 374.274C210.667 366.337 219.337 363.553 226.628 362.934C239.173 361.392 252.37 364.227 264.44 359.699C266.39 358.512 271.115 356.829 269.433 354.077C267.943 351.904 273.309 352.754 273.825 350.215C273.506 347 276.289 347.443 279.007 347.161C291.195 346.635 303.235 349.202 315.386 349.638C316.304 355.559 309.736 359.717 304.448 357.888C301.922 358.298 298.135 352.081 298.877 356.603C298.368 358.977 298.725 362.112 296.556 363.698M192.856 351.574C195.677 354.156 197.656 351.087 200.293 349.966C209.139 346.923 216.857 341.606 224.466 336.294C229.076 332.479 233.073 327.531 239.265 326.294C251.342 322.642 264.181 323.085 276.305 319.715C285.537 307.075 301.218 302.566 314.353 295.3C317.303 294.384 318.442 291.956 319.384 289.276C324.398 281.361 331.229 274.348 339.307 269.557C343.129 267.468 347.689 266.266 352.016 267.221C351.706 272.374 348.749 276.942 345.18 280.506C348.101 280.442 350.611 278.596 353.563 278.7C354.575 283.989 348.863 286.757 345.824 290.05C347.517 290.444 354.001 290.934 350.467 292.63C345.965 295.755 340.823 297.9 336.666 301.529C340.501 302.218 340.938 303.033 337.039 304.42C334.928 305.851 330.868 306.351 330.476 309.139C333.373 310.919 329.141 312.687 327.509 313.266C324.388 313.993 321.11 315.349 325.256 317.72C323.688 320.089 320.323 320.594 317.578 320.36C318.411 323.045 319.617 326.049 316.132 327.234C308.32 333.139 299.152 337.435 289.332 338.417C301.599 339.36 314.235 337.083 324.718 330.412C326.102 328.775 333.359 327.017 329.3 325.641C327.389 324.846 323.292 323.962 323.015 322.505C328.692 319.002 335.847 320.248 341.955 318.167C342.113 316.19 337.309 316.74 335.518 316.29C331.246 315.94 331.497 314.85 335.615 314.446C340.826 313.066 346.728 312.794 351.112 309.397C347.543 307.743 343.054 309.199 339.246 307.849C345.701 305.024 353.317 304.74 359.109 300.497C361.747 297.562 355.729 298.479 353.975 298.55C350.4 299.173 348.747 297.461 352.809 295.976C359.744 290.862 368.526 287.541 373.397 280.127C374.551 278.468 376.114 273.468 372.433 275.266C367.593 276.876 363.334 282.317 357.819 280.634C368.686 272.212 379.026 262.624 386.453 250.969C386.837 247.607 381.56 247.244 380.187 249.883C373.205 256.61 366.887 264.55 357.948 268.768C366.509 260.505 373.586 250.722 379.761 240.582C381.085 237.566 384.643 233.939 382.712 230.59C379.6 228.014 375.706 230.372 374.088 233.455C368.661 240.54 364.54 248.81 357.561 254.58C363.671 242.92 369.997 230.507 370.151 217.057C370.132 214.288 369.576 210.21 365.816 210.727C362.835 211.262 363.543 215.723 362.314 217.98C359.609 227.168 358.339 237.119 352.789 245.165C354.038 237.698 356.222 229.915 354.545 222.375C353.762 219.005 348.32 220.455 349.021 223.79C342.52 256.72 320.424 285.52 291.526 302.18C278.294 309.666 263.515 314.493 248.478 316.681C244.433 317.566 240.058 317.047 236.192 318.426C226.824 325.609 221.152 337.629 209.291 341.393C203.975 344.035 197.043 344.571 193.242 349.51C192.913 350.141 192.842 350.873 192.855 351.574" fill="#FFEC2D"/>
<path d="M228.356 318.167C226.606 321.344 225.576 324.996 223.326 327.84C216.555 321.68 206.74 321.883 198.152 321.473C191.064 321.095 183.355 320.441 177.871 315.385C172.101 310.659 167.392 304.523 160.945 300.689C155.06 299.089 149.128 297.087 144.397 293.053C134.287 284.812 128.497 272.585 118.618 264.087C116.735 262.233 114.514 260.796 112.404 259.223C110.399 259.712 111.306 264.039 108.853 261.833C107.518 260.883 104.179 260.791 103.878 262.118C106.898 266.098 109.922 270.642 110.34 275.733C108.28 275.944 104.618 275.298 103.597 276.065C106.332 280.165 109.839 283.801 113.823 286.696C111.912 287.003 108.146 286.836 107.414 287.606C111.368 290.829 115.609 294.123 120.787 294.951C121.847 296.348 119.237 299.046 121.432 300.239C122.705 300.759 126.904 301.629 124.012 303.077C122.027 304.414 122.763 307.532 125.302 307.462C126.907 308.282 130.51 308.482 130.792 309.902C129.37 311.349 124.943 313.066 128.711 314.422C132.23 316.374 136.244 317.641 140.263 317.78C138.246 319.477 135.761 320.44 133.685 322.037C142.96 327.475 153.242 331.052 163.402 334.496C167.447 335.848 171.539 337.108 175.732 337.901C163.548 337.198 151.771 333.591 140.674 328.654C134.923 326.131 129.132 323.694 123.238 321.521C125.822 320.176 128.812 319.848 131.492 318.684C125.928 317.569 119.85 317.204 114.959 314.145C115.709 312.807 118.55 312.744 120.122 312.063C123.077 311.355 124.911 310.496 120.743 310.239C116.541 309.099 111.721 309.611 108.017 307.075C108.256 305.555 112.132 306.085 113.71 305.429C115.698 305.087 117.908 304.801 119.497 303.464C113 300.77 104.502 302.679 99.4129 296.941C98.2394 294.755 103.057 296.516 104.429 296.152C107.916 296.152 111.663 297.26 114.983 295.854C105.516 291.698 95.3754 287.807 88.1554 280.119C87.3539 278.883 84.9519 275.506 86.8899 275.089C92.5094 275.832 96.5769 281.965 102.588 281.011C103.386 279.934 99.0959 278.17 98.0249 276.632C89.2609 269.111 80.7549 260.95 74.6124 251.099C74.1899 247.809 79.3609 247.316 80.7224 249.857C87.4249 256.312 93.4794 263.845 101.827 268.252C104.789 269.689 100.126 266.552 99.5054 265.415C91.7919 256.458 84.4489 246.998 79.0579 236.449C78.0929 234.548 76.4939 231.106 79.3809 230.094C82.2674 228.648 85.1314 230.618 86.5949 233.097C92.2659 240.25 96.4388 248.751 103.503 254.71C97.4848 243.03 91.0589 230.736 90.9034 217.296C91.0449 214.691 91.2124 210.75 94.7454 210.857C97.7119 210.407 97.2434 214.205 98.2154 216.016C101.138 225.889 102.413 236.576 108.276 245.294C106.981 237.969 105.075 230.426 106.341 222.98C106.633 220.535 109.386 219.795 111.182 221.273C112.635 224.828 112.937 229.218 114.261 233.019C121.791 258.779 138.698 281.435 160.731 296.639C178.877 309.084 200.412 316.514 222.391 317.809C224.376 317.982 226.369 318.042 228.357 318.164" fill="#FFEC2D"/>
<path d="M200.456 352.319C201.11 352.319 201.639 351.789 201.639 351.135C201.639 350.482 201.11 349.952 200.456 349.952C199.802 349.952 199.272 350.482 199.272 351.135C199.272 351.789 199.802 352.319 200.456 352.319Z" fill="#FFEC2D"/>
<path d="M200.356 351.428C200.622 351.428 200.838 351.212 200.838 350.945C200.838 350.679 200.622 350.463 200.356 350.463C200.089 350.463 199.873 350.679 199.873 350.945C199.873 351.212 200.089 351.428 200.356 351.428Z" fill="#FFEC2D" stroke="#FFEC2D" stroke-width="0.1905"/>
</svg>
