<svg width="432" height="128" viewBox="0 0 432 128" fill="none" xmlns="http://www.w3.org/2000/svg">
<path d="M128.411 92.7637V41.3086H135.067L166.555 82.7588V41.3096H172.849V92.7637H166.193L134.709 50.9492V92.7637H128.411ZM223.942 90.748C219.794 92.334 215.317 93.124 210.521 93.124C191.885 93.124 182.563 84.1885 182.563 66.3174C182.563 49.4053 191.559 40.9482 209.547 40.9482C214.708 40.9482 219.507 41.6699 223.941 43.1113V48.8672C219.506 47.1875 214.945 46.3477 210.267 46.3477C196.235 46.3477 189.222 53.0059 189.222 66.3174C189.222 80.5889 196.126 87.7285 209.947 87.7285C212.151 87.7285 214.598 87.4394 217.286 86.8613V69.376H223.942V90.748ZM234.559 72.9014V41.3115H241.209V72.9004C241.209 82.7832 246.129 87.7305 255.965 87.7305C265.799 87.7305 270.719 82.7832 270.719 72.9004V41.3115H277.374V72.9004C277.374 86.3867 270.238 93.126 255.966 93.126C241.693 93.126 234.559 86.3877 234.559 72.9014ZM295.903 41.3086V87.3682H322.823V92.7637H289.251V41.3086H295.903ZM332.427 92.7646H325.52L351.102 34.5225L376.684 92.7646H369.31L362.649 76.5703H345.636L347.469 71.1797H360.423L350.815 47.8594L332.427 92.7646ZM383.701 92.7637V41.3086H405.65C415.439 41.3086 420.332 45.4248 420.332 53.6504C420.332 60.3447 415.549 65.2988 405.976 68.5098L423.642 92.7637H414.862L398.493 69.6289V65.2783C408.326 63.7148 413.242 59.9365 413.242 53.9424C413.242 49.1943 410.508 46.8154 405.042 46.8154H390.357V92.7656H383.701V92.7637Z" fill="#CCCCCC"/>
<path d="M130.096 91.083V39.6279H136.751L168.235 81.0791V39.6279H174.533V91.083H167.877L136.391 49.2676V91.082H130.096V91.083ZM225.626 89.0674C221.478 90.6533 217.004 91.4424 212.205 91.4424C193.567 91.4424 184.247 82.5088 184.247 64.6357C184.247 47.7246 193.243 39.2666 211.235 39.2666C216.392 39.2666 221.191 39.9893 225.626 41.4287V47.1846C221.19 45.5049 216.63 44.665 211.954 44.665C197.923 44.665 190.907 51.3242 190.907 64.6357C190.907 78.9072 197.814 86.0469 211.632 86.0469C213.837 86.0469 216.286 85.7588 218.974 85.1797V67.6934H225.627L225.626 89.0674ZM236.241 71.2188V39.625H242.893V71.2188C242.893 81.1016 247.812 86.0449 257.648 86.0449C267.482 86.0449 272.401 81.0996 272.401 71.2188V39.625H279.057V71.2188C279.057 84.7041 271.921 91.4404 257.649 91.4404C243.377 91.4404 236.241 84.7051 236.241 71.2188ZM297.588 39.625V85.6846H324.504V91.0801H290.935V39.625H297.588ZM334.11 91.082H327.203L352.786 32.8359L378.368 91.082H370.989L364.334 74.8887H347.315L349.153 69.4932H362.104L352.499 46.1729L334.11 91.082V91.082ZM385.385 91.083V39.6279H407.334C417.123 39.6279 422.012 43.7412 422.012 51.9697C422.012 58.6611 417.231 63.6182 407.659 66.8281L425.325 91.083H416.542L400.175 67.9463V63.5918C410.009 62.0293 414.928 58.2549 414.928 52.2559C414.928 47.5088 412.19 45.1338 406.722 45.1338H392.041V91.083H385.385V91.083Z" fill="black"/>
<path d="M60.0938 0.000976608L0 21.1494L9.49707 99.8818L60.1582 127.727L111.08 99.5039L120.572 20.7754L60.0947 0L60.0938 0.000976608Z" fill="#B3B3B3"/>
<path d="M114.578 25.3252L59.9551 6.69727V121.074L105.733 95.7383L114.58 25.3252H114.578Z" fill="#A6120D"/>
<path d="M6.74414 25.6611L14.8809 96.0742L59.9531 121.074V6.69531L6.74414 25.6602V25.6611Z" fill="#DD1B16"/>
<path d="M74.9902 67.585L59.9541 74.6162H44.1055L36.6563 93.25L22.7988 93.5068L59.9541 10.8506L74.9902 67.585ZM73.5361 64.0459L60.0537 37.3525L48.9941 63.5859H59.9531L73.5371 64.0449L73.5361 64.0459Z" fill="#F2F2F2"/>
<path d="M59.9531 10.8506L60.0527 37.3525L72.6016 63.6064H59.9814L59.9521 74.5996L77.4043 74.6162L85.5605 93.5098L98.8193 93.7559L59.9521 10.8506H59.9531Z" fill="#B3B3B3"/>
</svg>
